<svg xmlns="http://www.w3.org/2000/svg" version="1.1" xmlns:xlink="http://www.w3.org/1999/xlink" width="1000" height="1000"><g clip-path="url(#SvgjsClipPath1842)"><rect width="1000" height="1000" fill="#f0f0f0"></rect><g transform="matrix(0.7189072609633357,0,0,0.7189072609633357,5.684341886080802e-14,217.82890007189076)"><svg xmlns="http://www.w3.org/2000/svg" direction="ltr" width="1391" height="785" viewBox="12105.758014254961 12387.582591210747 1391 785" stroke-linecap="round" stroke-linejoin="round" data-color-mode="light" class="tl-container tl-theme__force-sRGB tl-theme__light" style="background-color: transparent;"><defs><clipPath id="SvgjsClipPath1842"><rect width="1000" height="1000" x="0" y="0" rx="200" ry="200"></rect></clipPath></defs><g transform="matrix(1, 0, 0, 1, 12105.758, 12387.5826)" opacity="1"><g transform="scale(1, 1)"><g>
<g xmlns="http://www.w3.org/2000/svg" stroke-width="2.00" fill="none" stroke-linecap="butt">
<path stroke="#9a918d" vector-effect="non-scaling-stroke" d="   M 453.78 122.66   Q 453.91 122.54 454.24 122.58   Q 476.08 125.66 499.63 128.53   C 515.35 130.44 527.94 130.96 542.25 129.52   Q 559.67 127.76 581.87 124.08   Q 619.37 117.85 653.49 114.72   C 674.97 112.75 696.66 112.59 717.45 117.55   C 728.06 120.08 738.16 124.43 748.19 129.99   Q 768.71 141.35 782.08 156.38   Q 795.56 171.52 805.45 188.79   C 814.10 203.90 821.53 219.97 826.62 236.72   C 829.48 246.09 830.63 251.92 834.79 257.69   A 1.44 1.44 0.0 0 0 836.69 258.08   Q 837.26 257.75 837.76 256.84   Q 838.10 256.24 838.33 255.23   Q 841.77 240.18 847.30 228.55   Q 854.37 213.70 864.53 197.15   Q 874.74 180.51 886.20 168.84   C 900.83 153.94 917.93 141.85 937.16 134.95   C 964.24 125.23 990.71 124.26 1019.98 123.93   C 1055.67 123.51 1078.36 123.66 1107.18 120.18   Q 1112.80 119.50 1120.60 117.82   C 1129.29 115.95 1133.95 114.62 1140.74 114.96   A 0.68 0.68 0.0 0 1 1141.06 116.22   C 1129.34 123.19 1115.57 126.28 1100.82 129.10   C 1077.33 133.59 1052.46 135.42 1028.26 136.75   Q 1018.58 137.29 995.81 139.45   C 980.45 140.92 967.48 143.74 955.08 149.34   C 939.23 156.49 924.22 166.72 911.71 179.39   Q 900.64 190.60 894.23 199.22   Q 874.73 225.44 861.96 255.74   Q 852.07 279.20 844.39 317.54   Q 837.64 351.24 835.54 381.23   Q 831.27 441.91 846.17 502.79   Q 852.33 527.95 864.98 555.24   Q 877.17 581.53 896.47 601.28   Q 903.49 608.46 908.64 615.18   A 0.95 0.95 0.0 0 1 907.68 616.68   Q 904.43 615.96 901.88 614.43   C 887.51 605.80 872.98 595.21 862.08 583.43   C 845.67 565.70 837.72 552.69 820.10 527.43   A 0.36 0.35 -43.4 0 0 819.53 527.42   Q 803.50 547.61 792.23 562.22   Q 786.13 570.13 782.62 575.65   C 780.64 578.76 778.74 581.09 779.92 584.13   Q 782.51 590.79 789.10 603.48   Q 797.00 618.72 810.02 641.03   Q 814.66 648.99 819.90 655.96   A 1.08 1.08 0.0 0 0 821.60 655.99   Q 824.56 652.34 827.63 647.13   C 836.41 632.21 844.32 615.16 853.28 599.52   Q 854.37 597.62 856.27 595.25   A 0.64 0.64 0.0 0 1 857.15 595.14   Q 864.72 600.82 870.48 606.10   Q 877.15 612.21 882.30 615.52   C 902.28 628.37 925.12 639.10 949.21 639.20   C 987.63 639.37 1021.74 618.36 1046.34 589.55   Q 1056.31 577.88 1058.68 574.40   Q 1085.20 535.45 1098.56 493.06   Q 1115.98 437.77 1117.17 376.01   C 1118.07 329.51 1110.99 282.00 1092.29 239.26   Q 1087.92 229.29 1085.45 222.39   A 0.48 0.48 0.0 0 1 1085.85 221.75   C 1087.85 221.54 1090.09 221.39 1092.05 221.66   C 1105.50 223.54 1114.93 225.22 1125.24 225.47   Q 1129.51 225.57 1133.12 224.52   A 2.96 2.96 0.0 0 0 1135.18 222.36   L 1135.52 220.93   A 1.26 1.24 -16.5 0 1 1135.83 220.37   C 1143.11 212.84 1152.38 205.95 1162.53 198.04   Q 1178.25 185.79 1193.06 169.07   C 1196.30 165.40 1201.66 159.02 1201.95 154.35   A 0.97 0.97 0.0 0 0 1201.04 153.32   Q 1197.56 153.12 1192.98 153.98   C 1178.71 156.64 1162.66 162.14 1147.98 165.46   Q 1142.72 166.65 1138.59 166.51   A 0.94 0.94 0.0 0 1 1137.77 165.16   Q 1138.32 164.02 1139.55 163.05   C 1142.63 160.62 1146.09 158.02 1149.74 155.62   Q 1163.60 146.50 1174.84 134.16   C 1194.60 112.46 1208.94 86.88 1215.20 57.95   Q 1217.99 45.07 1216.64 31.84   C 1216.36 29.08 1215.15 24.57 1212.97 22.54   C 1209.71 19.52 1205.55 24.92 1204.20 27.21   C 1197.91 37.89 1192.60 48.63 1186.07 57.29   Q 1170.65 77.78 1148.23 88.71   C 1132.14 96.55 1112.27 100.48 1094.00 102.04   C 1067.47 104.31 1045.15 104.44 1017.26 104.54   C 1002.53 104.59 985.23 105.00 973.25 106.20   C 949.70 108.55 924.97 115.69 905.30 127.80   Q 880.54 143.04 862.50 166.01   C 850.91 180.78 843.02 194.56 834.64 210.82   A 0.63 0.62 -42.9 0 1 833.51 210.78   Q 826.32 193.85 819.96 181.05   C 813.32 167.69 802.74 151.09 791.03 139.08   Q 781.00 128.80 774.20 123.53   Q 745.97 101.64 709.13 94.87   Q 687.42 90.88 664.27 91.65   Q 639.58 92.48 625.75 95.04   Q 581.13 103.30 539.41 107.62   C 529.58 108.63 519.95 108.97 510.75 108.84   Q 480.10 108.40 451.80 95.66   Q 440.76 90.69 430.81 84.72   Q 422.29 79.61 419.09 76.68   Q 409.99 68.37 404.34 64.17   Q 402.20 62.58 400.10 61.91   A 2.95 2.93 -61.4 0 0 396.93 62.85   C 394.06 66.35 395.56 74.80 396.76 79.02   C 402.78 100.18 413.34 120.28 427.58 138.22   C 441.65 155.94 455.63 171.99 473.58 183.57   A 0.74 0.74 0.0 0 1 473.62 184.79   Q 466.23 190.26 463.54 192.54   Q 461.22 194.50 460.13 196.54   A 3.08 3.06 41.9 0 0 460.31 199.74   C 462.89 203.50 469.57 206.44 473.90 208.10   Q 485.60 212.59 497.02 216.99   Q 508.63 221.47 512.11 223.68   Q 515.15 225.59 513.75 228.33   C 501.55 252.06 489.78 279.67 482.62 307.10   C 469.24 358.39 463.48 412.44 468.62 465.16   Q 472.14 501.32 483.71 533.35   Q 498.12 573.21 527.81 604.95   C 531.79 609.20 535.89 613.42 540.81 614.44   A 0.89 0.89 0.0 0 0 541.86 613.36   Q 541.30 610.96 539.65 607.48   Q 534.36 596.29 523.42 575.38   Q 508.54 546.91 499.94 519.04   C 498.42 514.11 497.91 509.82 496.59 504.95   Q 496.02 502.84 494.34 494.30   C 480.47 423.81 488.26 349.14 513.56 281.62   Q 528.56 241.58 551.38 207.39   C 562.77 190.32 576.86 175.87 592.43 161.18   Q 594.05 159.66 594.99 157.92   A 0.77 0.77 0.0 0 0 594.54 156.81   Q 593.17 156.39 592.25 156.44   Q 571.88 157.73 552.26 158.38   Q 532.76 159.04 516.36 154.85   Q 498.16 150.21 478.74 140.24   C 469.57 135.52 464.82 131.55 453.82 123.35   Q 453.38 123.03 453.78 122.66"></path>
<path stroke="#9a918d" vector-effect="non-scaling-stroke" d="   M 229.80 395.35   A 0.33 0.32 -39.8 0 1 229.85 394.83   Q 233.59 392.51 239.22 389.48   Q 256.11 380.42 296.28 359.76   Q 356.23 328.93 410.20 292.46   Q 427.92 280.49 439.35 271.34   Q 453.04 260.39 458.60 254.84   C 462.11 251.33 466.81 246.32 467.23 241.77   A 1.02 1.02 0.0 0 0 465.96 240.69   Q 463.78 241.25 460.38 243.14   C 439.21 254.90 411.43 275.55 392.35 287.89   Q 340.92 321.16 288.35 347.59   Q 244.60 369.60 217.78 385.02   Q 207.43 390.97 201.65 392.99   C 181.53 400.02 163.94 402.64 142.13 406.42   Q 104.53 412.92 74.02 422.80   C 60.24 427.27 47.38 432.44 35.40 439.94   Q 25.85 445.92 20.39 452.50   C 4.79 471.30 4.19 499.03 23.60 515.42   Q 31.97 522.48 41.65 524.64   Q 59.41 528.62 80.26 527.46   C 105.91 526.04 127.03 523.10 154.27 519.36   A 0.71 0.71 0.0 0 1 155.08 520.10   Q 154.80 525.95 154.97 534.54   C 155.58 564.60 168.44 590.90 185.80 614.65   Q 192.22 623.45 202.19 633.36   Q 231.88 662.89 269.91 677.10   Q 281.28 681.34 286.88 682.33   Q 294.40 683.65 299.45 684.57   C 312.39 686.92 326.58 686.61 339.00 685.53   Q 370.80 682.75 403.02 677.51   Q 485.53 664.08 565.50 658.93   Q 595.83 656.98 615.50 657.54   Q 634.05 658.06 642.50 658.06   Q 664.33 658.06 686.67 650.92   C 696.53 647.77 705.02 642.87 714.09 636.95   Q 721.91 631.85 729.56 624.53   Q 741.14 613.45 748.99 603.50   C 769.54 577.45 785.48 549.23 796.66 517.39   C 805.90 491.05 811.70 465.85 816.89 437.76   Q 825.86 389.19 827.06 340.90   C 828.04 301.77 823.86 262.30 811.57 225.68   C 806.49 210.54 798.99 194.90 789.40 181.95   C 783.90 174.52 778.37 167.47 771.25 161.67   C 761.53 153.75 751.95 147.36 740.54 143.24   C 723.52 137.09 704.18 134.29 686.07 138.58   C 647.70 147.67 615.14 170.88 592.57 203.07   Q 563.15 245.02 547.46 295.26   C 524.86 367.64 522.21 444.97 538.11 518.44   Q 542.71 539.66 553.22 564.25   Q 562.64 586.29 574.80 604.50   C 583.64 617.73 593.01 629.59 606.13 637.07   A 1.09 1.09 0.0 0 1 605.88 639.07   Q 602.78 639.92 597.54 640.05   Q 555.34 641.12 523.05 644.08   Q 467.76 649.16 401.92 659.80   Q 373.64 664.37 341.11 666.94   C 317.03 668.84 291.60 666.99 268.74 656.98   C 226.69 638.57 190.92 603.48 174.92 560.13   C 171.96 552.09 169.90 542.91 169.30 534.74   Q 169.08 531.75 169.02 516.56   A 0.77 0.76 80.3 0 1 169.52 515.84   Q 171.05 515.30 173.51 514.77   Q 195.25 510.08 216.54 505.55   Q 220.90 504.62 226.39 504.39   A 0.95 0.95 0.0 0 1 227.24 505.84   Q 225.68 508.36 221.35 513.03   Q 209.81 525.47 211.36 541.60   C 212.19 550.27 218.70 557.73 226.86 560.52   C 235.89 563.59 245.23 562.96 254.76 561.53   Q 269.12 559.38 282.55 555.79   Q 337.30 541.14 386.57 517.56   Q 397.16 512.49 407.42 506.42   C 411.10 504.25 418.76 499.20 419.33 495.47   C 420.31 489.04 411.96 491.39 408.39 492.42   Q 400.45 494.72 389.85 499.14   C 358.32 512.28 340.25 519.97 312.98 529.23   Q 289.11 537.33 272.54 541.58   C 259.34 544.96 245.05 548.66 232.87 544.23   C 227.16 542.15 224.30 536.11 224.68 530.51   C 225.61 516.88 236.65 508.25 248.79 502.03   Q 256.51 498.07 262.53 496.01   Q 275.92 491.44 281.03 488.79   C 284.50 486.99 289.83 484.12 291.22 480.50   A 1.83 1.83 0.0 0 0 290.59 478.38   C 286.42 475.34 276.39 477.08 271.23 478.22   Q 202.84 493.30 141.52 503.50   Q 116.05 507.74 107.75 508.75   Q 83.57 511.67 60.26 509.83   Q 47.90 508.85 38.75 505.51   C 30.28 502.42 21.89 489.32 22.98 480.00   C 24.54 466.48 37.29 456.43 49.07 449.83   Q 62.81 442.13 86.20 435.47   Q 98.97 431.83 106.00 430.46   Q 150.98 421.69 196.50 416.50   Q 273.29 407.75 352.96 403.43   C 375.43 402.22 398.06 401.40 420.26 399.32   C 423.40 399.03 430.02 398.29 430.98 395.20   Q 432.44 390.49 431.24 385.86   A 1.19 1.18 85.2 0 0 430.19 384.97   Q 418.95 384.00 407.00 384.33   Q 340.47 386.20 273.59 392.15   C 260.02 393.36 245.66 394.36 230.25 395.49   Q 229.99 395.51 229.80 395.35"></path>
<path stroke="#9a918d" vector-effect="non-scaling-stroke" d="   M 1259.95 458.77   Q 1263.10 458.09 1265.49 457.92   Q 1279.86 456.89 1293.19 455.39   Q 1315.74 452.87 1337.04 445.59   C 1350.84 440.87 1372.78 429.75 1375.68 413.39   Q 1376.70 407.60 1376.57 405.51   C 1375.01 381.85 1341.46 378.78 1324.00 378.96   Q 1261.78 379.59 1205.00 383.98   C 1197.55 384.55 1188.75 385.28 1181.93 388.41   Q 1177.37 390.51 1178.26 395.76   Q 1178.67 398.16 1179.48 398.83   A 1.90 1.88 -20.9 0 0 1180.34 399.21   Q 1181.33 399.36 1184.00 399.36   C 1194.29 399.39 1213.35 398.75 1225.67 398.15   C 1261.53 396.40 1290.25 395.22 1319.76 395.23   Q 1334.60 395.24 1346.90 397.13   Q 1350.65 397.71 1355.19 399.29   C 1364.19 402.42 1363.63 412.01 1357.84 417.65   Q 1351.96 423.39 1342.86 427.15   Q 1326.33 433.98 1307.98 437.47   Q 1280.25 442.75 1251.18 444.89   C 1237.10 445.93 1222.68 447.40 1209.58 449.34   C 1206.06 449.86 1200.80 450.88 1198.55 453.64   A 2.07 1.84 39.9 0 0 1198.95 456.34   C 1201.64 458.65 1207.93 460.16 1210.43 460.60   Q 1227.81 463.70 1232.97 464.77   C 1239.29 466.08 1246.57 467.97 1247.86 475.33   C 1248.56 479.35 1245.68 481.66 1242.71 483.95   C 1232.46 491.85 1220.85 494.66 1208.16 496.67   Q 1182.05 500.80 1155.04 503.76   Q 1150.01 504.32 1147.06 507.75   A 2.83 2.49 -46.4 0 0 1146.92 511.29   C 1149.42 514.01 1153.82 514.79 1157.51 515.23   C 1172.92 517.07 1188.65 515.80 1204.20 513.27   C 1222.99 510.21 1239.23 506.11 1253.62 495.30   C 1261.32 489.51 1265.86 480.04 1262.25 470.43   Q 1259.83 463.97 1258.82 460.70   A 1.52 1.51 -14.7 0 1 1259.95 458.77"></path>
<path stroke="#9a918d" vector-effect="non-scaling-stroke" d="   M 900.56 448.83   Q 904.97 467.34 910.78 483.77   Q 920.05 509.97 936.92 530.16   Q 940.47 534.39 949.08 541.42   Q 968.32 557.10 991.97 552.47   C 1009.42 549.05 1025.38 537.98 1035.76 523.70   Q 1044.32 511.93 1048.59 503.07   C 1057.04 485.56 1062.17 468.18 1066.47 447.75   Q 1068.87 436.28 1072.36 420.84   A 1.69 1.69 0.0 0 0 1071.75 419.13   Q 1062.75 412.05 1055.78 406.06   C 1052.40 403.15 1047.18 397.17 1048.45 392.27   C 1049.36 388.77 1053.02 384.70 1055.84 382.58   C 1063.12 377.12 1069.63 370.71 1071.02 361.51   Q 1071.92 355.51 1071.66 351.13   Q 1070.25 327.73 1065.22 304.54   C 1060.53 282.91 1052.41 263.39 1037.38 246.64   Q 1020.81 228.17 997.34 225.32   C 986.46 223.99 977.81 225.61 967.48 229.19   C 956.29 233.05 945.49 242.30 938.27 251.52   Q 926.36 266.74 918.21 286.47   Q 908.95 308.87 904.36 329.38   Q 902.05 339.68 898.91 360.20   C 898.35 363.85 897.68 367.04 897.81 370.29   A 0.76 0.76 0.0 0 0 899.24 370.63   Q 902.68 364.55 904.73 361.22   C 917.80 340.04 944.10 331.90 965.63 345.93   Q 977.67 353.77 982.81 367.78   Q 992.98 395.54 985.26 427.05   Q 982.02 440.26 974.95 450.98   C 964.94 466.16 946.43 475.64 928.48 471.38   Q 915.67 468.34 907.90 456.84   C 905.57 453.39 903.41 450.83 900.90 448.62   A 0.21 0.21 0.0 0 0 900.56 448.83"></path>
<path stroke="#9a918d" vector-effect="non-scaling-stroke" d="   M 913.54 441.30   C 921.59 454.87 934.74 464.92 950.22 453.42   Q 960.63 445.68 967.50 432.24   Q 978.72 410.31 973.20 386.76   C 970.11 373.59 961.01 358.95 947.96 354.80   C 933.03 350.05 919.74 360.59 912.45 372.85   C 905.31 384.85 901.42 397.86 902.78 411.94   C 903.79 422.35 907.86 431.71 913.54 441.30"></path>
<path stroke="#9a918d" vector-effect="non-scaling-stroke" d="   M 594.19 363.25   Q 594.50 363.14 594.70 362.70   Q 597.34 357.08 598.90 354.15   C 608.91 335.18 628.54 324.85 649.98 328.71   C 667.76 331.90 680.20 347.01 685.48 362.82   C 693.90 388.07 692.23 417.06 678.91 440.37   Q 670.00 455.95 655.53 463.94   C 636.53 474.43 614.14 472.36 601.02 454.30   C 598.04 450.19 596.57 446.24 594.14 442.21   A 0.79 0.79 0.0 0 0 592.72 442.37   Q 592.19 443.98 592.59 446.41   C 595.18 462.11 599.98 479.85 605.05 494.23   C 611.57 512.70 620.59 532.10 634.19 546.05   Q 641.77 553.82 651.89 557.63   Q 664.05 562.22 676.82 563.90   C 686.97 565.24 694.75 563.62 703.83 559.09   Q 718.96 551.53 730.03 539.55   C 751.97 515.80 763.48 484.73 770.00 453.26   Q 772.95 439.01 775.79 427.47   A 1.69 1.67 27.9 0 0 775.27 425.80   C 772.70 423.50 770.59 421.87 768.62 419.82   Q 763.34 414.31 761.28 412.53   Q 758.30 409.95 755.74 405.35   C 749.59 394.30 759.39 387.19 766.93 380.19   C 775.05 372.64 776.60 362.86 777.30 350.07   Q 778.18 333.95 774.84 313.84   Q 770.12 285.49 755.85 258.07   Q 749.55 245.94 740.51 235.92   Q 728.07 222.10 708.75 217.12   C 696.80 214.04 683.97 217.68 672.65 222.61   Q 665.82 225.58 657.70 232.12   Q 648.32 239.67 644.52 244.05   Q 619.95 272.35 607.60 308.09   C 601.40 326.04 596.60 342.17 593.51 359.26   Q 593.18 361.13 593.31 362.69   A 0.66 0.65 77.1 0 0 594.19 363.25"></path>
<path stroke="#9a918d" vector-effect="non-scaling-stroke" d="   M 657.90 443.66   C 672.88 425.78 677.11 397.86 672.89 375.14   C 671.45 367.41 668.54 359.85 663.98 354.83   C 650.08 339.52 623.60 339.34 611.58 357.47   C 600.22 374.59 596.73 394.71 599.32 414.93   Q 600.35 422.92 602.80 429.12   C 607.26 440.35 613.73 451.21 626.64 453.53   C 639.48 455.84 649.17 454.08 657.90 443.66"></path>
</g>
<path xmlns="http://www.w3.org/2000/svg" fill="#f0f0f0" d="   M 1391.00 0.00   L 1391.00 785.00   L 0.00 785.00   L 0.00 0.00   L 1391.00 0.00   Z   M 453.78 122.66   Q 453.91 122.54 454.24 122.58   Q 476.08 125.66 499.63 128.53   C 515.35 130.44 527.94 130.96 542.25 129.52   Q 559.67 127.76 581.87 124.08   Q 619.37 117.85 653.49 114.72   C 674.97 112.75 696.66 112.59 717.45 117.55   C 728.06 120.08 738.16 124.43 748.19 129.99   Q 768.71 141.35 782.08 156.38   Q 795.56 171.52 805.45 188.79   C 814.10 203.90 821.53 219.97 826.62 236.72   C 829.48 246.09 830.63 251.92 834.79 257.69   A 1.44 1.44 0.0 0 0 836.69 258.08   Q 837.26 257.75 837.76 256.84   Q 838.10 256.24 838.33 255.23   Q 841.77 240.18 847.30 228.55   Q 854.37 213.70 864.53 197.15   Q 874.74 180.51 886.20 168.84   C 900.83 153.94 917.93 141.85 937.16 134.95   C 964.24 125.23 990.71 124.26 1019.98 123.93   C 1055.67 123.51 1078.36 123.66 1107.18 120.18   Q 1112.80 119.50 1120.60 117.82   C 1129.29 115.95 1133.95 114.62 1140.74 114.96   A 0.68 0.68 0.0 0 1 1141.06 116.22   C 1129.34 123.19 1115.57 126.28 1100.82 129.10   C 1077.33 133.59 1052.46 135.42 1028.26 136.75   Q 1018.58 137.29 995.81 139.45   C 980.45 140.92 967.48 143.74 955.08 149.34   C 939.23 156.49 924.22 166.72 911.71 179.39   Q 900.64 190.60 894.23 199.22   Q 874.73 225.44 861.96 255.74   Q 852.07 279.20 844.39 317.54   Q 837.64 351.24 835.54 381.23   Q 831.27 441.91 846.17 502.79   Q 852.33 527.95 864.98 555.24   Q 877.17 581.53 896.47 601.28   Q 903.49 608.46 908.64 615.18   A 0.95 0.95 0.0 0 1 907.68 616.68   Q 904.43 615.96 901.88 614.43   C 887.51 605.80 872.98 595.21 862.08 583.43   C 845.67 565.70 837.72 552.69 820.10 527.43   A 0.36 0.35 -43.4 0 0 819.53 527.42   Q 803.50 547.61 792.23 562.22   Q 786.13 570.13 782.62 575.65   C 780.64 578.76 778.74 581.09 779.92 584.13   Q 782.51 590.79 789.10 603.48   Q 797.00 618.72 810.02 641.03   Q 814.66 648.99 819.90 655.96   A 1.08 1.08 0.0 0 0 821.60 655.99   Q 824.56 652.34 827.63 647.13   C 836.41 632.21 844.32 615.16 853.28 599.52   Q 854.37 597.62 856.27 595.25   A 0.64 0.64 0.0 0 1 857.15 595.14   Q 864.72 600.82 870.48 606.10   Q 877.15 612.21 882.30 615.52   C 902.28 628.37 925.12 639.10 949.21 639.20   C 987.63 639.37 1021.74 618.36 1046.34 589.55   Q 1056.31 577.88 1058.68 574.40   Q 1085.20 535.45 1098.56 493.06   Q 1115.98 437.77 1117.17 376.01   C 1118.07 329.51 1110.99 282.00 1092.29 239.26   Q 1087.92 229.29 1085.45 222.39   A 0.48 0.48 0.0 0 1 1085.85 221.75   C 1087.85 221.54 1090.09 221.39 1092.05 221.66   C 1105.50 223.54 1114.93 225.22 1125.24 225.47   Q 1129.51 225.57 1133.12 224.52   A 2.96 2.96 0.0 0 0 1135.18 222.36   L 1135.52 220.93   A 1.26 1.24 -16.5 0 1 1135.83 220.37   C 1143.11 212.84 1152.38 205.95 1162.53 198.04   Q 1178.25 185.79 1193.06 169.07   C 1196.30 165.40 1201.66 159.02 1201.95 154.35   A 0.97 0.97 0.0 0 0 1201.04 153.32   Q 1197.56 153.12 1192.98 153.98   C 1178.71 156.64 1162.66 162.14 1147.98 165.46   Q 1142.72 166.65 1138.59 166.51   A 0.94 0.94 0.0 0 1 1137.77 165.16   Q 1138.32 164.02 1139.55 163.05   C 1142.63 160.62 1146.09 158.02 1149.74 155.62   Q 1163.60 146.50 1174.84 134.16   C 1194.60 112.46 1208.94 86.88 1215.20 57.95   Q 1217.99 45.07 1216.64 31.84   C 1216.36 29.08 1215.15 24.57 1212.97 22.54   C 1209.71 19.52 1205.55 24.92 1204.20 27.21   C 1197.91 37.89 1192.60 48.63 1186.07 57.29   Q 1170.65 77.78 1148.23 88.71   C 1132.14 96.55 1112.27 100.48 1094.00 102.04   C 1067.47 104.31 1045.15 104.44 1017.26 104.54   C 1002.53 104.59 985.23 105.00 973.25 106.20   C 949.70 108.55 924.97 115.69 905.30 127.80   Q 880.54 143.04 862.50 166.01   C 850.91 180.78 843.02 194.56 834.64 210.82   A 0.63 0.62 -42.9 0 1 833.51 210.78   Q 826.32 193.85 819.96 181.05   C 813.32 167.69 802.74 151.09 791.03 139.08   Q 781.00 128.80 774.20 123.53   Q 745.97 101.64 709.13 94.87   Q 687.42 90.88 664.27 91.65   Q 639.58 92.48 625.75 95.04   Q 581.13 103.30 539.41 107.62   C 529.58 108.63 519.95 108.97 510.75 108.84   Q 480.10 108.40 451.80 95.66   Q 440.76 90.69 430.81 84.72   Q 422.29 79.61 419.09 76.68   Q 409.99 68.37 404.34 64.17   Q 402.20 62.58 400.10 61.91   A 2.95 2.93 -61.4 0 0 396.93 62.85   C 394.06 66.35 395.56 74.80 396.76 79.02   C 402.78 100.18 413.34 120.28 427.58 138.22   C 441.65 155.94 455.63 171.99 473.58 183.57   A 0.74 0.74 0.0 0 1 473.62 184.79   Q 466.23 190.26 463.54 192.54   Q 461.22 194.50 460.13 196.54   A 3.08 3.06 41.9 0 0 460.31 199.74   C 462.89 203.50 469.57 206.44 473.90 208.10   Q 485.60 212.59 497.02 216.99   Q 508.63 221.47 512.11 223.68   Q 515.15 225.59 513.75 228.33   C 501.55 252.06 489.78 279.67 482.62 307.10   C 469.24 358.39 463.48 412.44 468.62 465.16   Q 472.14 501.32 483.71 533.35   Q 498.12 573.21 527.81 604.95   C 531.79 609.20 535.89 613.42 540.81 614.44   A 0.89 0.89 0.0 0 0 541.86 613.36   Q 541.30 610.96 539.65 607.48   Q 534.36 596.29 523.42 575.38   Q 508.54 546.91 499.94 519.04   C 498.42 514.11 497.91 509.82 496.59 504.95   Q 496.02 502.84 494.34 494.30   C 480.47 423.81 488.26 349.14 513.56 281.62   Q 528.56 241.58 551.38 207.39   C 562.77 190.32 576.86 175.87 592.43 161.18   Q 594.05 159.66 594.99 157.92   A 0.77 0.77 0.0 0 0 594.54 156.81   Q 593.17 156.39 592.25 156.44   Q 571.88 157.73 552.26 158.38   Q 532.76 159.04 516.36 154.85   Q 498.16 150.21 478.74 140.24   C 469.57 135.52 464.82 131.55 453.82 123.35   Q 453.38 123.03 453.78 122.66"></path>
</g>
</g></g></g></svg>
